<?xml version="1.0" encoding="UTF-8" standalone="no"?>
<svg
   width="128"
   height="128"
   viewBox="0 0 128 128"
   fill="none"
   version="1.1"
   id="svg31"
   sodipodi:docname="io.github.zaedus.spider.svg"
   inkscape:version="1.4.2 (ebf0e940d0, 2025-05-08)"
   xmlns:inkscape="http://www.inkscape.org/namespaces/inkscape"
   xmlns:sodipodi="http://sodipodi.sourceforge.net/DTD/sodipodi-0.dtd"
   xmlns="http://www.w3.org/2000/svg"
   xmlns:svg="http://www.w3.org/2000/svg">
  <sodipodi:namedview
     id="namedview31"
     pagecolor="#ffffff"
     bordercolor="#000000"
     borderopacity="0.25"
     inkscape:showpageshadow="2"
     inkscape:pageopacity="0.0"
     inkscape:pagecheckerboard="0"
     inkscape:deskcolor="#d1d1d1"
     inkscape:zoom="6.3529125"
     inkscape:cx="45.097426"
     inkscape:cy="60.129901"
     inkscape:window-width="2560"
     inkscape:window-height="1403"
     inkscape:window-x="0"
     inkscape:window-y="0"
     inkscape:window-maximized="1"
     inkscape:current-layer="svg31" />
  <mask
     id="mask0_2067_532"
     style="mask-type:alpha"
     maskUnits="userSpaceOnUse"
     x="8"
     y="27"
     width="112"
     height="92">
    <rect
       width="112"
       height="90.9574"
       rx="8"
       transform="matrix(-1 0 0 1 120 27.186)"
       fill="url(#paint1_linear_2067_532)"
       id="rect7" />
  </mask>
  <mask
     id="mask1_2067_532"
     style="mask-type:alpha"
     maskUnits="userSpaceOnUse"
     x="8"
     y="25"
     width="112"
     height="90">
    <rect
       width="112"
       height="88.9362"
       rx="8"
       transform="matrix(-1 0 0 1 120 25.2886)"
       fill="#D9D9D9"
       id="rect9" />
  </mask>
  <g
     id="g1"
     transform="translate(-0.41187459,-0.17127455)">
    <path
       opacity="0.1"
       d="m 111.98771,22.022676 h -95.1517 c -4.3792,0 -7.9293,3.8955 -7.9293,8.701 v 69.608104 c 0,4.805 3.5501,8.701 7.9293,8.701 h 95.1517 c 4.379,0 7.929,-3.896 7.929,-8.701 V 30.723676 c 0,-4.8055 -3.55,-8.701 -7.929,-8.701 z"
       stroke="#000000"
       stroke-width="0.99"
       stroke-dasharray="0.99, 0.99"
       id="path5" />
    <rect
       width="112"
       height="90.957397"
       rx="8"
       transform="scale(-1,1)"
       fill="url(#paint0_linear_2067_532)"
       id="rect6"
       style="fill:url(#paint0_linear_2067_532)"
       x="-120.41171"
       y="20.713776" />
    <g
       mask="url(#mask0_2067_532)"
       id="g7"
       transform="translate(0.41171,-6.4722244)">
      <path
         d="m 50.9254,61.257 4.1069,-7.1134 m -4.1069,7.1134 c 0,0 -14.8859,3.0803 -24.6418,3.0803 -9.756,0 -24.64183,-3.0803 -24.64183,-3.0803 m 49.28363,0 c 0,0 5.4707,14.0174 10.2674,22.3317 4.8507,8.408 14.3744,20.2783 14.3744,20.2783 M 50.9254,61.257 40.1446,79.8988 M 1.64177,61.257 -23,103.867 M 1.64177,61.257 -2.46519,54.1436 M 1.64177,61.257 12.4226,79.8988 M -23,103.867 1.64177,146.477 M -23,103.867 h 21.58463 m 3.05714,42.61 H 50.9254 m -49.28363,0 10.78083,-18.642 m 38.5028,18.642 c 0,0 5.4707,-14.018 10.2674,-22.332 4.8507,-8.408 14.3744,-20.278 14.3744,-20.278 m -24.6418,42.61 -10.7808,-18.642 m 35.4226,-23.968 h 6.1604 m -6.1604,0 H 53.9825 M 40.1446,79.8988 12.4226,127.835 m 27.722,-47.9362 c 0,0 -8.4331,1.0267 -13.861,1.0267 -5.4279,0 -13.861,-1.0267 -13.861,-1.0267 m 27.722,0 c 0,0 3.077,8.1955 5.8922,13.0107 2.6678,4.5631 7.9457,10.9575 7.9457,10.9575 M 12.4226,79.8988 40.1446,127.835 M 12.4226,79.8988 c 0,0 -3.07708,8.1955 -5.89226,13.0107 -2.66779,4.5631 -7.94571,10.9575 -7.94571,10.9575 m 55.39787,0 H -1.41537 m 55.39787,0 c 0,0 -5.2779,6.394 -7.9457,10.957 -2.8152,4.815 -5.8922,13.011 -5.8922,13.011 m 0,0 h -27.722 m 0,0 C 7.64649,119.845 -1.8076,103.867 -1.41537,103.867"
         stroke="#ffffff"
         stroke-opacity="0.5"
         stroke-width="8"
         stroke-linecap="round"
         stroke-linejoin="round"
         id="path7" />
    </g>
    <rect
       width="112"
       height="86.914902"
       rx="8"
       transform="scale(-1,1)"
       fill="#c557ff"
       id="rect8"
       x="-120.41171"
       y="20.671375" />
    <g
       mask="url(#mask1_2067_532)"
       id="g9"
       transform="translate(0.41171,-6.4722244)">
      <path
         d="m 50.9767,61.2695 4.1,-7.1255 m -4.1,7.1255 c 0,0 -14.8609,3.0854 -24.6004,3.0854 -9.7396,0 -24.60045,-3.0854 -24.60045,-3.0854 m 49.20085,0 c 0,0 5.4615,14.0409 10.2501,22.3691 4.8426,8.4221 14.3503,20.3124 14.3503,20.3124 M 50.9767,61.2695 40.214,79.9425 M 1.77585,61.2695 -22.8246,103.951 M 1.77585,61.2695 -2.32421,54.144 m 4.10006,7.1255 10.76265,18.673 M -22.8246,103.951 1.77585,146.632 M -22.8246,103.951 h 21.54845 m 3.052,42.681 H 50.9767 m -49.20085,0 10.76265,-18.673 m 38.4382,18.673 c 0,0 5.4615,-14.041 10.2501,-22.369 4.8426,-8.422 14.3503,-20.312 14.3503,-20.312 M 50.9767,146.632 40.214,127.959 m 35.3631,-24.008 h 6.1501 m -6.1501,0 H 54.0287 M 40.214,79.9425 12.5385,127.959 M 40.214,79.9425 c 0,0 -8.419,1.0285 -13.8377,1.0285 -5.4188,0 -13.8378,-1.0285 -13.8378,-1.0285 m 27.6755,0 c 0,0 3.0719,8.2093 5.8823,13.0326 2.6633,4.5708 7.9324,10.9759 7.9324,10.9759 M 12.5385,79.9425 40.214,127.959 M 12.5385,79.9425 c 0,0 -3.07183,8.2093 -5.88229,13.0326 -2.66331,4.5708 -7.93236,10.9759 -7.93236,10.9759 m 55.30485,0 H -1.27615 m 55.30485,0 c 0,0 -5.2691,6.405 -7.9324,10.975 -2.8104,4.824 -5.8823,13.033 -5.8823,13.033 m 0,0 H 12.5385 m 0,0 C 7.77048,119.956 -1.66772,103.951 -1.27615,103.951"
         stroke="#ffffff"
         stroke-width="8"
         stroke-linecap="round"
         stroke-linejoin="round"
         id="path9" />
    </g>
    <path
       d="m 8.41171,24.816376 c 0,-4.4183 3.5817,-8 8,-8 h 96 c 4.418,0 8,3.5817 8,8 v 7.2021 c 0,2.2091 -1.791,4 -4,4 h -104 c -2.20914,0 -4,-1.7909 -4,-4 z"
       fill="url(#paint2_linear_2067_532)"
       id="path10"
       style="fill:url(#paint2_linear_2067_532)" />
    <path
       d="m 8.41171,24.816376 c 0,-4.4183 3.5817,-8 8,-8 h 96 c 4.418,0 8,3.5817 8,8 v 7.2021 c 0,2.2091 -1.791,4 -4,4 h -104 c -2.20914,0 -4,-1.7909 -4,-4 z"
       fill="#ffffff"
       fill-opacity="0.2"
       id="path11" />
    <path
       d="m 8.41171,24.671276 c 0,-4.4182 3.5817,-7.9999 8,-7.9999 h 96 c 4.418,0 8,3.5817 8,8 v 4.1702 c 0,2.2091 -1.791,4 -4,4 h -104 c -2.20914,0 -4,-1.7909 -4,-4 z"
       fill="#f3c3ff"
       id="path12" />
    <circle
       cx="91.411713"
       cy="24.756575"
       r="3"
       fill="#6a1297"
       fill-opacity="0.5"
       id="circle12" />
    <circle
       cx="101.41171"
       cy="24.756575"
       r="3"
       fill="#6a1297"
       fill-opacity="0.5"
       id="circle13" />
    <circle
       cx="111.41171"
       cy="24.756575"
       r="3"
       fill="#6a1297"
       id="circle14" />
  </g>
  <defs
     id="defs31">
    <linearGradient
       id="paint0_linear_2067_532"
       x1="0"
       y1="90.9574"
       x2="112"
       y2="90.9574"
       gradientUnits="userSpaceOnUse"
       gradientTransform="translate(-120.41171,20.713776)">
      <stop
         stop-color="#560088"
         id="stop14" />
      <stop
         offset="0.05"
         stop-color="#C867FF"
         id="stop15" />
      <stop
         offset="0.1"
         stop-color="#7400B8"
         id="stop16" />
      <stop
         offset="0.9"
         stop-color="#7400B8"
         id="stop17" />
      <stop
         offset="0.95"
         stop-color="#C867FF"
         id="stop18" />
      <stop
         offset="1"
         stop-color="#560088"
         id="stop19" />
    </linearGradient>
    <linearGradient
       id="paint1_linear_2067_532"
       x1="0"
       y1="90.9574"
       x2="112"
       y2="90.9574"
       gradientUnits="userSpaceOnUse">
      <stop
         stop-color="#560088"
         id="stop20" />
      <stop
         offset="0.05"
         stop-color="#C867FF"
         id="stop21" />
      <stop
         offset="0.1"
         stop-color="#7400B8"
         id="stop22" />
      <stop
         offset="0.9"
         stop-color="#7400B8"
         id="stop23" />
      <stop
         offset="0.95"
         stop-color="#C867FF"
         id="stop24" />
      <stop
         offset="1"
         stop-color="#560088"
         id="stop25" />
    </linearGradient>
    <linearGradient
       id="paint2_linear_2067_532"
       x1="8"
       y1="42.4907"
       x2="120"
       y2="42.4907"
       gradientUnits="userSpaceOnUse"
       gradientTransform="translate(0.41171,-6.4722244)">
      <stop
         stop-color="#AE4AC7"
         id="stop26" />
      <stop
         offset="0.0176056"
         stop-color="#EA94FF"
         id="stop27" />
      <stop
         offset="0.0357452"
         stop-color="#CC71E3"
         id="stop28" />
      <stop
         offset="0.965468"
         stop-color="#CC71E3"
         id="stop29" />
      <stop
         offset="0.982809"
         stop-color="#EA94FF"
         id="stop30" />
      <stop
         offset="1"
         stop-color="#AE4AC7"
         id="stop31" />
    </linearGradient>
  </defs>
</svg>
